<?xml version="1.0" encoding="UTF-8"?>
<svg id="Calque_1" xmlns="http://www.w3.org/2000/svg" version="1.1" viewBox="0 0 507.61 283.46">
  <!-- Generator: Adobe Illustrator 29.7.1, SVG Export Plug-In . SVG Version: 2.1.1 Build 8)  -->
  <defs>
    <style>
      .st0 {
        fill: #010101;
      }

      .st1 {
        fill: #97526e;
      }
    </style>
  </defs>
  <g>
    <path class="st0" d="M28.86,221.62l.24-.07,9.3,15.82,9.3-15.82.24.07v23.76h-1.9v-15.69l.03-1.89-7.58,13.13h-.18l-7.58-13.13.03,1.89v15.69h-1.9v-23.76Z"/>
    <path class="st0" d="M52.07,237.31v-15.48h1.9v15.48c0,4.24,1.93,6.29,4.83,6.29s4.83-2.05,4.83-6.29v-15.48h1.9v15.48c0,5.32-2.81,8.31-6.73,8.31s-6.73-3-6.73-8.31Z"/>
    <path class="st0" d="M69.21,243.88v-2.32c.88,1.08,2.32,2.02,4.13,2.02,2.08,0,4.13-1.21,4.13-4.01,0-2.09-1.15-3.53-3.08-5.35l-1.69-1.58c-1.72-1.58-3.26-3.43-3.26-5.99,0-2.93,2.02-5.05,5.28-5.05,1.18,0,2.26.27,3.14.88v2.09c-.72-.57-1.78-1.01-3.02-1.01-2.23,0-3.47,1.35-3.47,3.23,0,1.62.94,2.86,2.42,4.27l1.96,1.82c2.02,1.88,3.68,3.9,3.68,6.77,0,3.6-2.66,5.99-5.95,5.99-1.78,0-3.35-.67-4.29-1.75Z"/>
    <path class="st0" d="M82.82,221.83h7.76v1.85h-5.86v7.41h5.74v1.78h-5.74v10.67h6.13v1.85h-8.03v-23.56ZM88.04,215.77h1.69l-1.69,4.34h-1.72l1.72-4.34Z"/>
    <path class="st0" d="M94.83,221.83h7.76v1.85h-5.86v7.41h5.74v1.78h-5.74v10.67h6.13v1.85h-8.03v-23.56Z"/>
    <path class="st0" d="M114.3,221.83h3.14c7.09,0,10.96,5.18,10.96,11.78s-3.86,11.78-10.96,11.78h-3.14v-23.56ZM117.31,243.54c6.25,0,9.12-4.31,9.12-9.93s-2.87-9.93-9.12-9.93h-1.12v19.86h1.12Z"/>
    <path class="st0" d="M131.92,221.83h7.76v1.85h-5.86v7.41h5.74v1.78h-5.74v10.67h6.13v1.85h-8.03v-23.56Z"/>
    <path class="st0" d="M143.48,243.88v-2.32c.88,1.08,2.32,2.02,4.13,2.02,2.08,0,4.13-1.21,4.13-4.01,0-2.09-1.15-3.53-3.08-5.35l-1.69-1.58c-1.72-1.58-3.26-3.43-3.26-5.99,0-2.93,2.02-5.05,5.28-5.05,1.18,0,2.26.27,3.14.88v2.09c-.72-.57-1.78-1.01-3.02-1.01-2.23,0-3.47,1.35-3.47,3.23,0,1.62.94,2.86,2.42,4.27l1.96,1.82c2.02,1.88,3.68,3.9,3.68,6.77,0,3.6-2.66,5.99-5.95,5.99-1.78,0-3.35-.67-4.29-1.75Z"/>
    <path class="st0" d="M164.54,221.83h1.93v23.56h-1.93v-23.56Z"/>
    <path class="st0" d="M172.63,227.15l.03,2.09v16.16h-1.9v-23.76l.24-.07,11.53,18.45-.03-2.09v-16.09h1.9v23.76l-.24.07-11.53-18.51Z"/>
    <path class="st0" d="M188.08,243.88v-2.32c.88,1.08,2.32,2.02,4.13,2.02,2.08,0,4.13-1.21,4.13-4.01,0-2.09-1.15-3.53-3.08-5.35l-1.69-1.58c-1.72-1.58-3.26-3.43-3.26-5.99,0-2.93,2.02-5.05,5.28-5.05,1.18,0,2.26.27,3.14.88v2.09c-.72-.57-1.78-1.01-3.02-1.01-2.23,0-3.47,1.35-3.47,3.23,0,1.62.94,2.86,2.42,4.27l1.96,1.82c2.02,1.88,3.68,3.9,3.68,6.77,0,3.6-2.66,5.99-5.95,5.99-1.78,0-3.35-.67-4.29-1.75Z"/>
    <path class="st0" d="M203.86,223.71h-3.83v-1.88h9.6v1.88h-3.8v21.68h-1.96v-21.68Z"/>
    <path class="st0" d="M213.3,221.83h3.5c5.52,0,8.48,3.5,8.48,8.04,0,3.7-1.93,6.7-5.61,7.67l5.79,7.84h-2.23l-5.49-7.51c-.3.03-.63.03-.94.03h-1.6v7.47h-1.9v-23.56ZM216.75,236.1c4.32,0,6.64-2.49,6.64-6.23s-2.32-6.16-6.64-6.16h-1.54v12.39h1.54Z"/>
    <path class="st0" d="M228.69,237.31v-15.48h1.9v15.48c0,4.24,1.93,6.29,4.83,6.29s4.83-2.05,4.83-6.29v-15.48h1.9v15.48c0,5.32-2.81,8.31-6.73,8.31s-6.73-3-6.73-8.31Z"/>
    <path class="st0" d="M246.29,221.62l.24-.07,9.3,15.82,9.3-15.82.24.07v23.76h-1.9v-15.69l.03-1.89-7.58,13.13h-.18l-7.58-13.13.03,1.89v15.69h-1.9v-23.76Z"/>
    <path class="st0" d="M269.64,221.83h7.76v1.85h-5.86v7.41h5.74v1.78h-5.74v10.67h6.13v1.85h-8.03v-23.56Z"/>
    <path class="st0" d="M283.53,227.15l.03,2.09v16.16h-1.9v-23.76l.24-.07,11.53,18.45-.03-2.09v-16.09h1.9v23.76l-.24.07-11.53-18.51Z"/>
    <path class="st0" d="M302.81,223.71h-3.83v-1.88h9.6v1.88h-3.8v21.68h-1.96v-21.68Z"/>
    <path class="st0" d="M310.6,243.88v-2.32c.88,1.08,2.32,2.02,4.13,2.02,2.08,0,4.13-1.21,4.13-4.01,0-2.09-1.15-3.53-3.08-5.35l-1.69-1.58c-1.72-1.58-3.26-3.43-3.26-5.99,0-2.93,2.02-5.05,5.28-5.05,1.18,0,2.26.27,3.14.88v2.09c-.72-.57-1.78-1.01-3.02-1.01-2.23,0-3.47,1.35-3.47,3.23,0,1.62.94,2.86,2.42,4.27l1.96,1.82c2.02,1.88,3.68,3.9,3.68,6.77,0,3.6-2.66,5.99-5.95,5.99-1.78,0-3.35-.67-4.29-1.75Z"/>
    <path class="st0" d="M331.66,221.83h3.14c7.09,0,10.96,5.18,10.96,11.78s-3.86,11.78-10.96,11.78h-3.14v-23.56ZM334.68,243.54c6.25,0,9.12-4.31,9.12-9.93s-2.87-9.93-9.12-9.93h-1.12v19.86h1.12Z"/>
    <path class="st0" d="M349.28,221.83h7.76v1.85h-5.86v7.41h5.74v1.78h-5.74v10.67h6.13v1.85h-8.03v-23.56Z"/>
    <path class="st0" d="M368.75,221.62l.24-.07,9.3,15.82,9.3-15.82.24.07v23.76h-1.9v-15.69l.03-1.89-7.58,13.13h-.18l-7.58-13.13.03,1.89v15.69h-1.9v-23.76Z"/>
    <path class="st0" d="M391.95,237.31v-15.48h1.9v15.48c0,4.24,1.93,6.29,4.83,6.29s4.83-2.05,4.83-6.29v-15.48h1.9v15.48c0,5.32-2.81,8.31-6.73,8.31s-6.73-3-6.73-8.31Z"/>
    <path class="st0" d="M409.09,243.88v-2.32c.88,1.08,2.32,2.02,4.13,2.02,2.08,0,4.13-1.21,4.13-4.01,0-2.09-1.15-3.53-3.08-5.35l-1.69-1.58c-1.72-1.58-3.26-3.43-3.26-5.99,0-2.93,2.02-5.05,5.28-5.05,1.18,0,2.26.27,3.14.88v2.09c-.72-.57-1.78-1.01-3.02-1.01-2.23,0-3.47,1.35-3.47,3.23,0,1.62.94,2.86,2.42,4.27l1.96,1.82c2.02,1.88,3.68,3.9,3.68,6.77,0,3.6-2.66,5.99-5.95,5.99-1.78,0-3.35-.67-4.29-1.75Z"/>
    <path class="st0" d="M422.7,221.83h1.93v23.56h-1.93v-23.56Z"/>
    <path class="st0" d="M439.06,245.62h-.33c-1.33,0-2.2.47-2.96,1.31l-1-1.52c.18-.2.39-.4.66-.61-3.8-1.68-6.82-5.82-6.82-11.21,0-7.1,5.25-12.02,10.65-12.02s10.62,4.91,10.62,12.02c0,5.66-3.29,9.9-7.36,11.41.84.44,1.75.77,2.9.77s1.84-.34,2.6-1.04l1,1.51c-.72.74-1.84,1.48-3.53,1.48-2.72,0-3.92-1.95-6.43-2.12ZM447.93,233.61c0-5.99-4.23-10-8.66-10s-8.66,4-8.66,10,4.2,10,8.66,10,8.66-4.01,8.66-10Z"/>
    <path class="st0" d="M453.27,237.31v-15.48h1.9v15.48c0,4.24,1.93,6.29,4.83,6.29s4.83-2.05,4.83-6.29v-15.48h1.9v15.48c0,5.32-2.81,8.31-6.73,8.31s-6.73-3-6.73-8.31Z"/>
    <path class="st0" d="M470.87,221.83h7.76v1.85h-5.86v7.41h5.74v1.78h-5.74v10.67h6.13v1.85h-8.03v-23.56Z"/>
  </g>
  <g>
    <path class="st1" d="M64.67,189.28h-1.52c-3.23,0-9.5.64-21.08.64-.95,0-.95-1.48,0-1.48,14.24,0,20.89-12.28,20.89-30.29v-85.56c0-28.8-3.04-30.71-18.42-30.71-1.33,0-1.33-1.48,0-1.48,12.72,0,15.19.63,18.61.63h9.69c0,31.98,59.63,63.54,62.29,98.91,15.95-43.21,22.41-98.91,49.95-98.91h12.34c3.61,0,6.08-.63,18.8-.63,1.33,0,1.14,1.48,0,1.48-15.57,0-18.61,1.91-18.61,30.71v84.72c0,28.8,3.04,30.71,18.61,30.92,1.14,0,1.33,1.48,0,1.48-12.72,0-15.38-.64-18.8-.64l-11.96.21c-3.61,0-6.08.64-18.8.85-1.33.21-1.14-1.27,0-1.48,15.57-.21,18.42-2.33,18.42-31.13V42.72c-43.3,1.27-32.67,147.2-97.8,147.2-12.91,0-17.66-.64-22.6-.64ZM127.91,156.46c-1.14-38.55-63.05-77.3-63.05-98.69l-.19,95.31c0,19.91,6.84,34.95,22.6,34.95,18.99,0,31.53-13.34,40.64-31.56Z"/>
    <path class="st1" d="M230.83,189.92c-1.14,0-1.14-1.48,0-1.48,14.62-.21,15.19-5.51,15.19-21.82v-42.57c0-11.01,2.85-25.2,16.52-36.85-15.19,7.62-25.45,17.58-30.58,24.36-.95,1.48-2.28,0-1.33-1.27,7.98-10.59,22.6-22.03,40.64-28.59,1.33-.63,2.09.64,1.14,1.48-13.1,9.95-15.19,26.26-15.19,42.57l.19,40.88c.19,16.52.76,21.6,15.38,21.6,1.14,0,1.14,1.48,0,1.48-10.44.21-11.77-.42-15.38-.42h-11.2c-3.42,0-4.75.64-15.38.64ZM247.17,52.47c0-5.08,3.42-9.32,8.17-9.32s8.36,3.81,8.36,9.32c0,5.08-3.23,9.11-8.36,9.11-4.37,0-8.17-3.81-8.17-9.11Z"/>
    <path class="st1" d="M310.78,189.28h-1.52c-3.23,0-9.5.64-21.08.64-.95,0-.95-1.48,0-1.48,14.24,0,20.89-12.28,20.89-30.29v-85.56c0-28.8-3.04-30.71-18.42-30.71-1.33,0-1.33-1.48,0-1.48,12.72,0,15.19.63,18.61.63h9.69c0,31.98,59.63,63.54,62.29,98.91,15.95-43.21,22.41-98.91,49.95-98.91h12.34c3.61,0,6.08-.63,18.8-.63,1.33,0,1.14,1.48,0,1.48-15.57,0-18.61,1.91-18.61,30.71v84.72c0,28.8,3.04,30.71,18.61,30.92,1.14,0,1.33,1.48,0,1.48-12.72,0-15.38-.64-18.8-.64l-11.96.21c-3.61,0-6.08.64-18.8.85-1.33.21-1.14-1.27,0-1.48,15.57-.21,18.42-2.33,18.42-31.13V42.72c-43.3,1.27-32.66,147.2-97.8,147.2-12.91,0-17.66-.64-22.6-.64ZM374.02,156.46c-1.14-38.55-63.05-77.3-63.05-98.69l-.19,95.31c0,19.91,6.84,34.95,22.6,34.95,18.99,0,31.52-13.34,40.64-31.56Z"/>
  </g>
</svg>