<svg width="177" height="174" viewBox="0 0 177 174" fill="none" xmlns="http://www.w3.org/2000/svg">
<path d="M129.967 170.888C126.204 160.228 123.382 149.253 121.031 138.749C107.705 122.288 91.557 97.0472 82.6208 79.8019L81.9937 80.1154C92.6544 101.123 100.963 122.602 108.018 145.491C115.387 153.33 124.009 162.893 129.183 171.359L129.967 170.888Z" fill="#D6605C"/>
<path d="M51.4228 173.555C57.3803 163.834 64.2784 154.741 71.0198 146.589C75.5663 125.895 85.1296 97.5184 93.1251 79.8028L92.498 79.4892C82.7779 100.967 71.0198 120.721 57.5371 140.632C56.1261 151.292 53.9312 163.991 50.4822 173.241L51.2661 173.555H51.4228Z" fill="#D6605C"/>
<path d="M0.313551 113.662C11.6014 112.251 22.8892 111.938 33.7067 112.251C52.8333 103.001 80.8962 92.6541 99.7092 87.7941V87.167C76.6632 92.9677 53.9308 96.1032 29.9441 97.9845C20.6944 103.472 9.40653 109.743 0 112.878V113.819L0.313551 113.662Z" fill="#D6605C"/>
<path d="M15.3645 36.5338C23.5168 44.5293 30.7285 53.152 37.3131 61.7747C56.4397 70.8676 81.9941 86.5452 97.5149 98.1466L97.9852 97.6763C79.1721 83.4097 62.5539 67.5754 46.2493 50.0165C36.2156 46.2539 24.3007 41.2371 15.9916 35.9067L15.5213 36.6906L15.3645 36.5338Z" fill="#D6605C"/>
<path d="M84.9716 0C83.7174 11.2878 81.5226 22.4189 79.0142 32.9228C83.8742 53.6172 87.4801 83.2478 88.1072 102.688H88.7343C88.2639 79.0148 90.1452 56.1256 93.7511 32.4525C90.4588 22.2621 86.8529 9.72008 85.9123 0H84.9716Z" fill="#D6605C"/>
<path d="M156.932 31.8284C147.369 37.9427 137.179 43.1163 127.459 47.6628C114.289 64.281 93.4383 85.7592 78.5447 98.3013L79.015 98.7716C97.201 83.7211 116.171 70.8655 137.022 58.9506C142.979 50.0144 150.505 39.5104 157.56 32.6123L156.932 31.9852V31.8284Z" fill="#D6605C"/>
<path d="M177 107.857C166.182 104.095 155.835 99.5484 146.272 94.6883C125.107 94.6883 95.32 91.8663 76.1934 87.947V88.574C99.2394 93.2773 121.031 100.332 143.45 109.112C154.111 108.171 167.123 107.544 176.843 108.641V107.701L177 107.857Z" fill="#D6605C"/>
</svg>
