<?xml version="1.0" encoding="UTF-8"?>
<svg id="Calque_1" xmlns="http://www.w3.org/2000/svg" version="1.1" viewBox="0 0 283.46 283.46">
  <!-- Generator: Adobe Illustrator 29.7.1, SVG Export Plug-In . SVG Version: 2.1.1 Build 8)  -->
  <defs>
    <style>
      .st0 {
        fill: #020303;
      }
    </style>
  </defs>
  <path class="st0" d="M227.21,66.64c0-8.33-5.15-21.43-18.81-20.12-13.67,1.31-20.03,15.26-17.88,23.59l1.22-.94c-2.06-7.58,4.31-20.03,16.94-21.15,13.01-1.12,17.22,11.33,17.22,18.91.66,15.35-11.23,34.54-38.19,39.22-16.47,2.9-28.17-.19-43.15-4.4,13.48-31.17,27.24-45.39,35.01-61.12,1.97-3.46,2.62-6.93,2.25-9.92,10.3,2.43,18.25,4.31,21.71,4.31,13.76,0,20.12-6.27,20.31-11.98,0-4.96-3.65-9.55-11.04-10.11-6.08-1.4-18.63,2.71-34.82,10.67-18.16-8.24-39.4-18.34-55.13-18.34-22.74,0-61.21,23.21-62.43,50.26-.28,3.84.94,7.11,1.5,9.55.94,0,0,0,.94-1.12-1.5-2.15-2.25-5.43-1.97-8.52.75-18.63,23.02-38.84,48.3-38.84,13.1,0,34.44,4.77,53.72,9.55-4.4,3.46-8.05,8.99-9.92,15.35-4.02,13.95-4.77,32.67-14.51,58.59-14.6-3.84-26.96-7.11-42.4-4.31-28.27,4.96-41.09,30.33-40.9,50.73.47,6.36,1.12,11.89,3.56,16.38l1.5-1.03c-2.53-4.49-3.46-10.01-3.74-15.63,0-19.66,12.26-44.08,39.87-49.04,15.16-2.62,28.92.56,43.15,4.49l1.03.19c15.35,4.12,30.98,8.52,47.45,5.62,27.61-4.68,39.78-24.62,39.22-40.81h0ZM212.42,13.39c5.9.84,9.08,5.43,9.08,10.11-.28,5.15-4.4,10.39-13.48,10.39-5.9,0-15.44-3.84-26.68-8.99,13.38-8.24,24.15-12.64,31.07-11.51Z"/>
  <polygon class="st0" points="139.41 122.89 139.32 122.8 137.45 120.46 123.5 124.11 123.5 124.3 133.05 123.55 73.15 277.23 81.29 277.23 138.66 124.95 144.65 129.73 139.41 122.89"/>
</svg>