<?xml version="1.0" encoding="UTF-8"?>
<svg id="Calque_1" xmlns="http://www.w3.org/2000/svg" version="1.1" viewBox="0 0 507.61 283.46">
  <!-- Generator: Adobe Illustrator 29.7.1, SVG Export Plug-In . SVG Version: 2.1.1 Build 8)  -->
  <defs>
    <style>
      .st0 {
        fill: #5c85bc;
      }
    </style>
  </defs>
  <path class="st0" d="M65.54,90.11c-.31-14.41-5.79-24.45-22.33-24.45-14.99,0-28.95,12.91-28.95,38.05,0,22.95,11.17,41.05,32.05,41.05,14.16,0,24.71-9.22,30.19-26.29.31-.69,1.14-.23.83.58-5.48,16.6-16.44,28.37-34.53,28.37-20.78,0-36.6-15.57-36.6-40.01s17.16-42.78,38.05-42.78c13.03,0,24.92,6.8,29.16,15.11-8.06,10.38-10.54,18.11-12.41,24.1-.31,1.15-1.14.58-.93-.11,1.03-3.34,2.69-8.19,5.48-13.61Z"/>
  <path class="st0" d="M82.5,106.25c0-24.1,17.37-41.74,37.43-41.74,22.12,0,37.53,16.72,37.53,41.28s-17.47,41.74-38.56,41.74-36.39-17.18-36.39-41.28ZM153.42,110.52c0-21.91-14.99-44.05-35.77-44.05-18.3,0-31.12,14.76-31.12,35.17,0,23.06,16.13,43.94,35.88,43.94,17.58,0,31.02-14.76,31.02-35.06Z"/>
  <path class="st0" d="M163.87,146.73c-.72,0-.62-.81,0-.81,8.58,0,10.13-.69,10.13-16.14v-47.51c0-15.45-1.55-16.14-10.13-16.14-.62,0-.72-.81,0-.81,7.03,0,8.27.35,10.24.35h4.55c2.38,0,3.82-.35,12.3-.35.83,0,.72.81,0,.81-10.34,0-12.2.69-12.2,16.14v63.08l73.93.07c-.1-23.29-46.96,8.34-46.96-13.11,0-.92.93-1.04.93,0,0,20.64,46.86-10.99,46.97,13.11v1.04l-79.51-.07c-1.97,0-3.21.35-10.24.35Z"/>
  <path class="st0" d="M190.76,103.02c0-19.98,14.4-34.61,31.03-34.61,18.34,0,31.11,13.86,31.11,34.23s-14.48,34.61-31.97,34.61-30.17-14.25-30.17-34.23ZM249.56,106.56c0-18.17-12.43-36.52-29.66-36.52-15.17,0-25.8,12.24-25.8,29.16,0,19.12,13.37,36.43,29.74,36.43,14.57,0,25.71-12.24,25.71-29.06Z"/>
  <path class="st0" d="M262.18,146.73c-.62,0-.62-.81,0-.81,7.75,0,10.96-5.77,10.96-15.57v-44.74c0-18.57-1.55-19.37-10.13-19.37-.62,0-.72-1.04,0-1.04,7.03,0,8.27.46,10.24.46h4.55c0,13.38,12.2,24.45,23.99,33.79,11.89,9.46,23.88,17.76,27.19,29.18v-45.2c0-10.84-3.2-17.3-10.96-17.3-.62,0-.62-.81,0-.81,6.31,0,9.31.35,11.06.35h.72c1.76,0,4.75-.35,11.06-.35.62,0,.62.81,0,.81-7.65,0-10.96,5.77-10.96,15.57v64.58c0,.46-.52.58-.83.11,0-18.22-15.71-29.64-30.5-41.63-12.41-10.15-24.5-21.1-24.5-32.06v55.93c0,10.84,3.31,17.3,10.96,17.3.62,0,.62.81,0,.81-6.31,0-9.31-.35-11.06-.35h-.72c-1.76,0-4.75.35-11.06.35Z"/>
  <path class="st0" d="M347.59,146.73c-.62,0-.62-.81,0-.81,7.75,0,10.96-5.77,10.96-15.57v-44.74c0-18.57-1.55-19.37-10.13-19.37-.62,0-.72-1.04,0-1.04,7.03,0,8.27.46,10.24.46h4.55c0,13.38,12.2,24.45,23.99,33.79,11.89,9.46,23.88,17.76,27.19,29.18v-45.2c0-10.84-3.2-17.3-10.96-17.3-.62,0-.62-.81,0-.81,6.31,0,9.31.35,11.06.35h.72c1.76,0,4.75-.35,11.06-.35.62,0,.62.81,0,.81-7.65,0-10.96,5.77-10.96,15.57v64.58c0,.46-.52.58-.83.11,0-18.22-15.71-29.64-30.5-41.63-12.41-10.15-24.5-21.1-24.5-32.06v55.93c0,10.84,3.31,17.3,10.96,17.3.62,0,.62.81,0,.81-6.31,0-9.31-.35-11.06-.35h-.72c-1.76,0-4.75.35-11.06.35Z"/>
  <path class="st0" d="M432.58,107.4c0-26.18,17.99-42.78,37.84-42.78,12.82,0,22.02,5.42,22.02,13.61,0,22.95-48.8,10.15-48.8,24.22v.81h49.21c1.14,0,.93,1.04,0,1.04h-50.14v-1.73c0-15.91,48.8-2.08,48.8-24.45,0-7.38-8.89-12.45-21.09-12.45-18.4,0-31.95,14.41-31.95,38.51s11.58,40.71,30.71,40.71c15.1,0,26.68-9.34,32.15-26.29.31-.81,1.03-.11.72.81-5.48,16.03-17.37,28.02-34.22,28.02-20.16,0-35.25-15.57-35.25-40.01Z"/>
  <path class="st0" d="M5.48,220.01c0-6.16,3.66-9.93,8.9-12.41v-26.9c0-10.73-1.08-11.21-7.04-11.21-.43,0-.5-.56,0-.56,4.88,0,5.74.24,7.11.24h13.5c19.74,0,30.08,10.57,30.08,28.02s-10.84,28.02-30.51,28.02h-12.56c-1.87,0-3.02.24-5.24.24-3.37,0-4.24-3.44-4.24-5.44ZM14.38,213.68v-5.28c-4.95,2.4-8.26,5.92-8.26,11.53,0,1.76.93,4.88,3.66,4.88,3.3,0,4.59-.4,4.59-11.13ZM35.92,202.07c7.75-1.52,15.36-5.44,15.51-12.81,0-2.4.07-4.72-1.58-8.09-4.45-7.29-12.13-11.29-21.97-11.29h-9.62c-.5,3.52-.57,5.36-.57,12.33v24.1c5.6-2,12.13-3.04,18.24-4.24ZM18.33,224.49h9.62c15.72,0,25.99-10.49,25.99-27.3,0-4.64-.79-8.81-2.3-12.41.43,1.68.43,3.04.43,4.48,0,7.85-8.04,11.93-16.15,13.53-6.1,1.2-12.85,2.32-18.24,4.24v5.05c0,7.05.07,8.81.64,12.41Z"/>
  <path class="st0" d="M69.52,201.75v-21.06c0-10.73-1.08-11.21-7.04-11.21-.43,0-.5-.56,0-.56,4.88,0,5.74.24,7.11.24h3.16c1.36,0,2.23-.24,7.11-.24.5,0,.43.56,0,.56-5.96,0-7.04.48-7.04,11.21v18.82c0,14.49,3.23,25.7,15.72,25.7,11.13,0,17.52-8.89,17.52-25.78v-14.25c0-9.77-2.73-15.61-9.33-15.61-.43,0-.43-.72,0-.72,5.38,0,7.9.32,9.41.32h.5c1.22,0,3.3-.24,7.68-.24.43,0,.43.56,0,.56-5.31,0-7.61,4-7.61,10.81v18.5c0,10.81-2.44,27.14-18.24,27.14-10.05,0-18.95-5.93-18.95-24.18Z"/>
  <path class="st0" d="M177.64,186.14c-.21-10.01-4.02-16.98-15.51-16.98-10.41,0-20.1,8.97-20.1,26.42,0,15.93,7.75,28.51,22.26,28.51,9.84,0,17.16-6.41,20.96-18.26.22-.48.79-.16.58.4-3.8,11.53-11.41,19.7-23.98,19.7-14.43,0-25.42-10.81-25.42-27.78s11.92-29.71,26.42-29.71c9.05,0,17.3,4.72,20.25,10.49-5.6,7.21-7.32,12.57-8.62,16.73-.21.8-.79.4-.64-.08.72-2.32,1.87-5.68,3.8-9.45Z"/>
  <path class="st0" d="M189.41,197.35c0-16.73,12.06-28.98,25.99-28.98,15.36,0,26.06,11.61,26.06,28.67s-12.13,28.98-26.78,28.98-25.27-11.93-25.27-28.67ZM238.67,200.31c0-15.21-10.41-30.59-24.84-30.59-12.71,0-21.61,10.25-21.61,24.42,0,16.01,11.2,30.51,24.91,30.51,12.21,0,21.54-10.25,21.54-24.34Z"/>
  <path class="st0" d="M245.84,225.45c-.43,0-.43-.56,0-.56,5.39,0,7.61-4,7.61-10.81v-31.07c0-12.89-1.08-13.45-7.04-13.45-.43,0-.5-.72,0-.72,4.88,0,5.74.32,7.11.32h3.16c0,9.29,8.47,16.98,16.66,23.46,8.26,6.57,16.58,12.33,18.88,20.26v-31.39c0-7.53-2.23-12.01-7.61-12.01-.43,0-.43-.56,0-.56,4.38,0,6.46.24,7.68.24h.5c1.22,0,3.3-.24,7.68-.24.43,0,.43.56,0,.56-5.31,0-7.61,4-7.61,10.81v44.84c0,.32-.36.4-.57.08,0-12.65-10.91-20.58-21.18-28.91-8.62-7.05-17.02-14.65-17.02-22.26v38.83c0,7.53,2.3,12.01,7.61,12.01.43,0,.43.56,0,.56-4.38,0-6.46-.24-7.68-.24h-.5c-1.22,0-3.3.24-7.68.24Z"/>
  <path class="st0" d="M345.21,221.29c-4.45,2.88-10.05,4.64-15.15,4.64-14,0-25.2-10.81-25.2-27.78,0-18.18,13.14-29.71,26.56-29.71,8.9,0,15.01,3.76,15.01,9.45,0,16.01-33.89,7.05-33.89,16.81v.56h35.61c1.15,0,1.79-.24,5.74-.24.36,0,.29.56,0,.56-4.81,0-5.81.48-5.67,11.21l.29,19.54c0,.16-.36.16-.36,0-.36-1.28-1.51-5.04-2.95-5.04ZM345.78,177.81c0-5.12-5.89-8.65-14.36-8.65-12.49,0-22.47,10.01-22.47,26.74s8.76,28.67,22.04,28.67c4.81,0,9.26-.72,14.21-4.08v-17.06c0-4-.43-6.97-4.52-7.53l-28.79.08v-1.2c0-11.05,33.89-1.44,33.89-16.98Z"/>
  <path class="st0" d="M401.21,230.98c-5.31-11.53-9.62-33.31-18.16-33.31-4.38-.16-8.4-1.28-11.99-3.12v18.02c0,11.77,1.51,12.33,9.83,12.33.65,0,.72.56,0,.56-6.82,0-8.04-.24-9.91-.24h-3.16c-1.36,0-2.23.24-7.11.24-.5,0-.43-.56,0-.56,5.96,0,7.04-.48,7.04-11.21v-21.14c-6.17-4.32-10.2-10.81-10.2-17.05,0-3.68,2.08-6.57,5.96-6.57,1.87,0,2.95.24,4.81.24h15.08c13.71,0,19.03,7.13,19.03,14.65s-6.96,12.57-16.01,13.61c9.69,3.12,12.21,20.1,19.17,33.63,2.8,5.44,7.83,13.45,14.36,13.45,2.58,0,5.6-.56,8.4-4.08.43-.8.79.08.5.4-2.94,3.52-5.39,4.4-9.05,4.4-8.33,0-14.93-6.33-18.6-14.25ZM367.75,191.66v-12.57c-.14-9.21-1.58-9.61-4.24-9.61-3.88,0-5.31,2.64-5.31,6.01,0,5.68,3.59,11.85,9.55,16.17ZM383.12,196.95c.43,0,.79,0,1.22.08,10.34-.32,14.07-5.93,14.07-12.57s-3.59-14.49-14.86-14.49h-11.92c-.36,1.68-.5,2.8-.57,9.13v14.65c3.44,1.84,7.54,3.04,12.06,3.2Z"/>
  <path class="st0" d="M410.4,198.15c0-18.18,12.49-29.71,26.28-29.71,8.9,0,15.29,3.76,15.29,9.45,0,15.93-33.89,7.05-33.89,16.81v.56h34.17c.79,0,.65.72,0,.72h-34.82v-1.2c0-11.05,33.89-1.44,33.89-16.98,0-5.12-6.17-8.65-14.65-8.65-12.78,0-22.18,10.01-22.18,26.74s8.04,28.26,21.32,28.26c10.48,0,18.52-6.49,22.33-18.26.22-.56.72-.08.5.56-3.81,11.13-12.06,19.46-23.77,19.46-14,0-24.48-10.81-24.48-27.78ZM426.98,152.91c-.07-1.04.29-1.52,1.15-1.52,2.01,0,2.08,5.44,9.91,10.65.14.16,0,.4-.22.24-6.82-2.72-10.7-7.29-10.84-9.37Z"/>
  <path class="st0" d="M461.51,201.19c0-.48.57-.48.64-.08-.57,14.41,6.17,24.1,18.74,24.1,8.69,0,16.3-5.28,16.3-14.25,0-10.49-8.69-14.09-15.29-19.46-6.17,4.24-13.07,8.33-13.07,16.57,0,.56-.65.64-.65,0,0-8.65,6.82-12.73,13.14-17.06-3.81-3.2-6.75-7.13-6.75-13.45,0-4.88,3.88-9.13,8.97-9.13,4.52,0,8.4,3.12,8.4,9.13,0,5.29-3.16,8.73-7.11,11.77,6.82,5.04,15.51,9.53,15.51,19.94,0,7.69-7.82,16.66-19.46,16.66-12.21,0-20.03-8.97-19.38-24.74ZM484.34,188.94c3.95-2.96,6.96-6.33,6.96-11.37,0-6.33-4.31-8.41-7.75-8.41-5.46,0-6.46,4.24-6.46,8.33,0,5.05,3.16,8.33,7.25,11.45Z"/>
</svg>