<?xml version="1.0" encoding="UTF-8"?>
<svg id="Calque_1" xmlns="http://www.w3.org/2000/svg" version="1.1" viewBox="0 0 507.61 283.46">
  <!-- Generator: Adobe Illustrator 29.7.1, SVG Export Plug-In . SVG Version: 2.1.1 Build 8)  -->
  <defs>
    <style>
      .st0 {
        fill: #a67c5c;
      }
    </style>
  </defs>
  <g>
    <path class="st0" d="M202.43,146.08c-6.57-14.26-11.45-40.6-22.02-40.6-4.08,0-7.99-.79-11.63-2.28v18.52c0,15.05,2.13,16.34,12.08,16.54.89,0,.89.69,0,.69-8.26,0-9.94-.3-12.16-.3h-7.28c-1.6,0-2.84.3-8.7.3-.62,0-.62-.69,0-.69,7.1-.1,8.61-1.29,8.61-14.95v-24.36c-7.64-5.64-12.61-14.16-12.61-21.79,0-4.56,2.13-8.12,7.37-8.12,2.31,0,3.64.3,5.95.3h21.67c15.09,0,23.88,6.04,23.88,18.22s-12.43,16.64-23.35,17.73c12.79,3.07,17.67,20.6,25.13,36.44,6.75,14.95,10.03,20.8,16.52,20.8,3.02,0,6.93-.69,10.39-5.05.53-.99.98.1.62.5-3.64,4.36-6.66,5.45-11.19,5.45-10.3,0-18.73-7.53-23.26-17.33ZM161.32,97.86v-15.65c0-7.43-1.95-12.28-5.24-12.28-4.79,0-6.57,3.07-6.57,7.23,0,6.93,4.53,15.05,11.81,20.7ZM180.59,104.69c11.1-.59,18.2-3.07,18.2-17.13,0-11.49-7.28-17.33-16.52-17.33h-12.87c-.44,2.08-.53,3.56-.62,11.39v20.6c3.73,1.58,7.64,2.48,11.81,2.48Z"/>
    <path class="st0" d="M252.24,138.95c-.8,0-.8-.69,0-.69,5.33-.1,7.9-1.19,8.52-4.26-8.97-11.69-20.07-18.72-30.37-22.28,3.91,2.67,9.15,7.92,9.15,17.13,0,5.15-3.37,10.69-9.77,10.69-12.79,0-13.85-14.66-8.79-24.36l19.98-38.13-2.13-5.55c-.09-.2-.18-.3.09-.4,2.4-.89,5.15-2.18,6.22-4.46,0,0,.18-.1.27,0l21.67,57.04c4.08,10.79,6.22,14.46,11.54,14.56.44,0,.44.69,0,.69-4.35,0-5.42-.3-6.66-.3h-8.17c-2.04,0-3.91.3-11.54.3ZM229.78,138.66c5.95,0,8.97-5.35,8.97-9.71,0-11.98-10.3-17.83-12.08-18.42h-.18c-.62-.2-.44-.99,0-.89,10.83,2.77,25.48,11.19,34.45,23.07,0-2.08-.71-5.05-2.22-9.01l-17.4-45.65-19.71,37.73c-4.62,8.91-3.82,22.88,8.17,22.88Z"/>
    <path class="st0" d="M282.52,138.95c-.53,0-.53-.69,0-.69,6.66-.1,10.03-6.54,10.03-14.95v-35.55c0-16.44-1.51-17.83-8.61-17.92-.62,0-.62-.89,0-.89,5.86,0,7.1.4,8.7.4h6.75c0,11.98,8.79,20.2,18.56,27.43,14.56,10.79,21.31,15.55,23.44,22.08v-32.48c0-9.31-3.37-16.54-10.03-16.64-.53,0-.53-.69,0-.69,5.24,0,8.7.3,10.12.3h.62c1.42,0,4.88-.3,10.12-.3.53,0,.53.69,0,.69-6.66,0-10.03,6.54-10.03,14.95v53.97c0,.4-.8.4-.8,0,0-13.96-12.96-24.96-25.48-33.67-11.81-8.22-22.46-17.33-22.46-28.12v44.76c0,9.31,3.37,16.54,10.03,16.64.53,0,.53.69,0,.69-5.24,0-8.7-.3-10.12-.3h-.71c-1.42,0-4.88.3-10.12.3Z"/>
    <path class="st0" d="M357.65,132.02c0-7.53,4.44-12.68,10.83-16.24v-31.1c0-13.67-1.51-14.85-8.61-14.95-.62,0-.62-.69,0-.69,5.86,0,7.1.3,8.7.3h17.67c23.26,0,42.09,9.9,42.09,34.66,0,21.59-14.65,34.66-40.49,34.66h-18.65c-2.31,0-3.37.3-6.13.3-4.44,0-5.42-4.46-5.42-6.93ZM368.48,124.4v-7.63c-6.04,3.47-10.03,8.32-10.03,15.35,0,2.18.98,6.04,4.62,6.04,3.02,0,5.42-.5,5.42-13.77ZM395.03,108.55c10.3-1.29,21.22-5.15,21.22-15.84,0-2.97-.98-6.63-3.2-10.89-5.68-7.63-14.83-11.59-26.73-11.59h-9.41c-.62,4.36-.71,6.63-.71,15.25v27.03c5.95-1.98,12.43-3.17,18.82-3.96ZM377.45,137.77h11.9c19.45,0,30.1-12.58,30.1-33.77,0-7.23-1.42-13.37-4-18.32,1.07,2.67,1.51,4.75,1.6,6.93.27,11.19-11.28,15.55-21.93,16.83-6.48.79-13.05,1.98-18.91,3.96v9.01c0,8.71.53,10.89,1.24,15.35Z"/>
    <path class="st0" d="M149.24,185.67h32.5c.62,0,.8.89,0,.89h-32.5c-.8,0-.71-.89,0-.89Z"/>
    <path class="st0" d="M189.56,223.01c-.62,0-.62-.69,0-.69,7.1-.1,8.61-1.29,8.61-14.95v-38.62c0-13.67-1.51-14.85-8.61-14.95-.62,0-.62-.69,0-.69,5.86,0,7.1.3,8.7.3h20.78c17.94,0,26.55,8.62,26.37,20-.27,15.35-14.74,18.52-26.1,18.52-8.44,0-13.58,1.98-13.58,9.21v4.66c0,15.05,2.13,16.34,12.08,16.54.89,0,.89.69,0,.69-8.26,0-9.94-.3-12.16-.3h-7.37c-1.6,0-2.84.3-8.7.3ZM219.21,191.02c13.5,0,17.4-8.81,17.4-17.73,0-11.29-7.28-19.01-17.67-19.01h-12.52c-.27.99-.71,3.17-.71,12.28v30.1c1.95-4.65,7.46-5.64,13.5-5.64Z"/>
    <path class="st0" d="M250.91,223.01c-.62,0-.62-.69,0-.69,7.1-.1,8.61-1.29,8.61-14.95v-38.52c0-13.67-1.51-14.85-8.61-14.95-.62,0-.62-.69,0-.69,5.86,0,7.1.3,8.7.3l7.46-.1c1.95,0,3.46-.3,10.48-.4.71,0,.71.69,0,.69-8.52.2-10.3,1.39-10.3,15.05v53.08h35.78c-.09-20-21.84-12.97-21.84-31.39,0-.79.8-.89.8,0,0,17.73,21.75,10.69,21.84,31.39v.89h-44.22c-1.6,0-2.84.3-8.7.3Z"/>
    <path class="st0" d="M344.41,223.01c-.8,0-.8-.69,0-.69,5.33-.1,7.9-1.19,8.52-4.26-8.97-11.69-20.07-18.72-30.37-22.28,3.91,2.67,9.15,7.92,9.15,17.13,0,5.15-3.37,10.7-9.77,10.7-12.79,0-13.85-14.66-8.79-24.36l19.98-38.13-2.13-5.54c-.09-.2-.18-.3.09-.4,2.4-.89,5.15-2.18,6.21-4.46,0,0,.18-.1.27,0l21.67,57.04c4.08,10.79,6.22,14.46,11.54,14.56.44,0,.44.69,0,.69-4.35,0-5.42-.3-6.66-.3h-8.17c-2.04,0-3.91.3-11.54.3ZM321.95,222.71c5.95,0,8.97-5.35,8.97-9.71,0-11.98-10.3-17.83-12.08-18.42h-.18c-.62-.2-.44-.99,0-.89,10.83,2.77,25.48,11.19,34.45,23.07,0-2.08-.71-5.05-2.22-9.01l-17.4-45.65-19.71,37.73c-4.62,8.91-3.82,22.88,8.17,22.88Z"/>
    <path class="st0" d="M370.61,189.24c0-20,14.21-36.44,33.21-36.74,11.01,0,18.65,4.46,18.65,11.98,0,24.46-41.82,10.4-42.62,29.12,2.13,14.95,10.74,27.63,27.35,27.63,11.37,0,19.53-8.12,25.13-22.58.36-.69.89-.2.62.5-5.77,14.56-14.12,24.56-30.63,24.56-18.38,0-31.7-13.47-31.7-34.46ZM379.49,190.62c4.71-15.75,42.18-3.56,42.18-26.24,0-6.83-7.37-10.99-17.85-10.99-12.16,0-24.51,9.9-24.51,32.38l.18,4.85Z"/>
    <path class="st0" d="M437.29,189.24c0-20,14.21-36.44,33.21-36.74,11.01,0,18.91,4.65,18.91,11.69,0,19.71-38.18,8.71-38.18,20.8v.69h38.54c.98,0,.8.89,0,.89h-39.33v-1.49c0-13.67,38.18-1.78,38.18-21,0-6.34-7.64-10.69-18.11-10.69-12.16,0-24.51,9.9-24.51,32.38,0,18.12,8.44,35.45,27.88,35.45,11.37,0,20.42-8.12,25.13-22.58.36-.69.89-.2.62.5-4.88,14.56-14.12,24.56-30.63,24.56-18.38,0-31.7-13.47-31.7-34.46Z"/>
  </g>
  <path class="st0" d="M123.36,206.92c-12.95,8.38-29.23,13.51-44.06,13.51-40.72,0-73.3-31.44-73.3-80.82,0-52.87,38.22-86.41,77.27-86.41,25.9,0,43.65,10.95,43.65,27.48,0,46.58-98.57,20.5-98.57,48.91v1.63h103.58c3.34,0,5.22-.7,16.7-.7,1.05,0,.84,1.63,0,1.63-13.99,0-16.91,1.4-16.5,32.61l.83,56.83c0,.47-1.04.47-1.04,0-1.05-3.72-4.39-14.67-8.56-14.67ZM125.03,80.45c0-14.91-17.13-25.15-41.77-25.15-36.33,0-65.36,29.11-65.36,77.79s25.48,83.38,64.11,83.38c13.99,0,26.94-2.09,41.35-11.88v-49.61c0-11.64-1.25-20.26-13.16-21.89l-83.74.23v-3.49c0-32.14,98.57-4.19,98.57-49.38Z"/>
</svg>