<?xml version="1.0" encoding="UTF-8"?>
<svg id="Calque_1" xmlns="http://www.w3.org/2000/svg" version="1.1" viewBox="0 0 507.61 283.46">
  <!-- Generator: Adobe Illustrator 29.7.1, SVG Export Plug-In . SVG Version: 2.1.1 Build 8)  -->
  <defs>
    <style>
      .st0 {
        fill: #8e8679;
      }
    </style>
  </defs>
  <path class="st0" d="M46.49,132.93c-.75,0-.64-.83,0-.83,8.87,0,10.47-.71,10.47-16.68v-49.09c0-15.97-1.6-16.68-10.47-16.68-.64,0-.75-.83,0-.83,7.27,0,8.55.36,10.58.36h20.73c21.58,0,31.52,10.37,31.3,24.07-.32,18.47-17.2,22.52-30.88,22.52-10.15,0-16.35,3.46-16.35,12.15v5.84c0,17.52,2.24,18.35,14.64,18.35.96,0,1.07.83,0,.83-10.15,0-11.97-.36-14.74-.36h-4.7c-2.03,0-3.31.36-10.58.36ZM78.12,94.68c14.1,0,24.25-5,24.57-21.57.21-13.58-7.05-22.88-24.15-22.88h-15.81c-.32,1.19-.85,3.81-.85,14.78v37.42c2.46-6.08,8.97-7.75,16.24-7.75Z"/>
  <path class="st0" d="M115.73,132.93c-.75,0-.64-.83,0-.83,8.87,0,10.47-.71,10.47-16.68v-49.09c0-15.97-1.6-16.68-10.47-16.68-.64,0-.75-.83,0-.83,7.27,0,8.55.36,10.58.36h4.7c2.46,0,3.95-.36,12.71-.36.85,0,.75.83,0,.83-10.68,0-12.61.71-12.61,16.68v65.18h42.1c-.11-24.07-26.28-15.61-26.28-37.77,0-.95.96-1.07.96,0,0,21.33,26.18,12.87,26.28,37.77v1.07h-47.87c-2.03,0-3.31.36-10.58.36Z"/>
  <path class="st0" d="M221.08,132.93c-.75,0-.75-.83,0-.83,6.2,0,8.98-1.43,9.4-4.65-10.79-14.18-24.57-23-36.97-27.29,4.7,3.22,11,9.53,11,20.61,0,6.2-4.06,12.87-11.75,12.87-15.39,0-16.99-17.87-10.58-29.31l23.83-45.64v.12l-2.78-7.51q-.11-.24.11-.36c1.5-.71,2.78-1.55,3.74-2.98,0,0,.11-.12.21,0l25.75,68.75c4.27,11.32,6.73,15.37,12.93,15.37.43,0,.43.83,0,.83-5.02,0-5.98-.36-7.37-.36h-4.81c-2.46,0-3.95.36-12.71.36ZM192.77,132.57c7.16,0,10.79-6.43,10.79-11.68,0-14.77-12.29-21.33-14.53-22.04l-.21-.12c-.75-.24-.53-1.19,0-1.07,13.14,3.22,30.88,13.58,41.67,28.12-.11-2.14-1.07-5.36-2.46-9.06l-21.48-56.84-23.61,45.16c-5.88,10.49-4.59,27.53,9.83,27.53Z"/>
  <path class="st0" d="M313.29,74.42c-.32-14.89-5.98-25.26-23.08-25.26-15.49,0-29.92,13.35-29.92,39.32,0,23.71,11.54,42.42,33.12,42.42,14.64,0,25.54-9.53,31.2-27.17.32-.71,1.18-.24.86.6-5.66,17.16-16.99,29.31-35.69,29.31-21.48,0-37.82-16.09-37.82-41.35s17.74-44.21,39.32-44.21c13.46,0,25.75,7.03,30.13,15.61-8.33,10.72-10.9,18.71-12.82,24.9-.32,1.19-1.17.6-.96-.12,1.07-3.46,2.78-8.46,5.66-14.06Z"/>
  <path class="st0" d="M330.82,92.3c0-27.05,18.59-44.21,39.1-44.21,13.25,0,22.76,5.6,22.76,14.06,0,23.71-50.43,10.49-50.43,25.02v.83h50.86c1.17,0,.96,1.07,0,1.07h-51.82v-1.79c0-16.44,50.43-2.14,50.43-25.26,0-7.63-9.19-12.87-21.8-12.87-19.02,0-33.01,14.89-33.01,39.8s11.97,42.06,31.73,42.06c15.6,0,27.56-9.65,33.23-27.17.32-.83,1.07-.12.75.83-5.66,16.56-17.95,28.96-35.36,28.96-20.84,0-36.43-16.09-36.43-41.35Z"/>
  <path class="st0" d="M110.92,239.05c-7.91-17.16-14.32-49.57-27.03-49.57-6.52-.24-12.5-1.91-17.84-4.65v26.81c0,17.52,2.24,18.35,14.64,18.35.96,0,1.07.83,0,.83-10.15,0-11.97-.36-14.74-.36h-4.7c-2.03,0-3.31.36-10.58.36-.75,0-.64-.83,0-.83,8.87,0,10.47-.71,10.47-16.68v-31.46c-9.19-6.43-15.17-16.09-15.17-25.38,0-5.48,3.1-9.77,8.87-9.77,2.78,0,4.38.36,7.16.36h22.44c20.41,0,28.31,10.6,28.31,21.81s-10.36,18.71-23.83,20.26c14.42,4.65,18.16,29.91,28.53,50.04,4.17,8.1,11.65,20.02,21.37,20.02,3.85,0,8.33-.83,12.5-6.08.64-1.19,1.17.12.75.6-4.38,5.24-8.01,6.55-13.46,6.55-12.39,0-22.22-9.41-27.67-21.21ZM61.13,180.55v-18.71c-.21-13.7-2.35-14.3-6.3-14.3-5.77,0-7.91,3.93-7.91,8.94,0,8.46,5.34,17.64,14.21,24.07ZM84,188.41c.64,0,1.17,0,1.82.12,15.38-.48,20.94-8.82,20.94-18.71s-5.34-21.57-22.12-21.57h-17.74c-.53,2.5-.75,4.17-.85,13.58v21.81c5.13,2.74,11.22,4.53,17.95,4.77Z"/>
  <path class="st0" d="M124.6,189.01c0-24.9,17.95-43.13,38.68-43.13,22.86,0,38.78,17.28,38.78,42.66s-18.06,43.13-39.85,43.13-37.61-17.75-37.61-42.66ZM197.89,193.42c0-22.64-15.49-45.52-36.97-45.52-18.91,0-32.16,15.25-32.16,36.34,0,23.83,16.67,45.4,37.07,45.4,18.16,0,32.05-15.25,32.05-36.22Z"/>
  <path class="st0" d="M208.69,230.36c5.66-12.87,11.97-12.87,23.4-21.69l1.18-1.07-18.27-44.8c-4.59-11.32-7.48-15.25-15.49-15.25-.54,0-.54-.83,0-.83,6.62,0,7.69.36,9.62.36h5.24c2.03,0,3.31-.36,10.58-.36.64,0,.64.83,0,.83-8.87,0-9.08,3.93-4.49,15.25l16.77,41.23c8.65-7.98,18.48-18.83,21.8-37.06,2.14-11.92-1.82-19.42-11.54-19.42-.75,0-.75-.83,0-.83,7.91,0,11.75.36,14.74.36,1.6,0,4.17-.36,9.29-.36.43,0,.43.83,0,.83-6.3,0-9.51,6.67-11.22,17.75-3.63,23.59-17.63,35.39-27.67,44.21-6.94,5.24-12.07,7.39-16.24,11.2,1.71-1.07,3.53-1.55,5.56-1.55,7.91,0,10.47,7.15,23.83,7.15s19.34-9.06,23.93-23.12c.43-1.19,1.28-.48.96.24-4.38,13.35-11.22,28.12-23.61,28.12-13.35,0-16.03-11.32-25.11-11.32-4.27,0-7.48,2.14-10.04,5.96-.75,1.31-1.5,2.86-2.24,4.53-.32.83-1.17.48-.96-.36Z"/>
  <path class="st0" d="M315.96,230.83c-.75,0-.75-.83,0-.83,6.2,0,8.98-1.43,9.4-4.65-10.79-14.18-24.57-23-36.97-27.29,4.7,3.22,11,9.53,11,20.61,0,6.2-4.06,12.87-11.75,12.87-15.39,0-16.99-17.87-10.58-29.31l23.82-45.64v.12l-2.78-7.51q-.11-.24.11-.36c1.5-.71,2.78-1.55,3.74-2.98,0,0,.11-.12.21,0l25.75,68.75c4.27,11.32,6.73,15.37,12.93,15.37.43,0,.43.83,0,.83-5.02,0-5.98-.36-7.37-.36h-4.81c-2.46,0-3.95.36-12.71.36ZM287.65,230.47c7.16,0,10.79-6.43,10.79-11.68,0-14.77-12.29-21.33-14.53-22.04l-.21-.12c-.75-.24-.53-1.19,0-1.07,13.14,3.22,30.88,13.58,41.67,28.12-.11-2.14-1.07-5.36-2.46-9.06l-21.47-56.84-23.61,45.16c-5.88,10.49-4.59,27.53,9.83,27.53Z"/>
  <path class="st0" d="M347.38,230.83c-.75,0-.64-.83,0-.83,8.87,0,10.47-.71,10.47-16.68v-49.09c0-15.97-1.6-16.68-10.47-16.68-.64,0-.75-.83,0-.83,7.27,0,8.55.36,10.58.36h4.7c2.46,0,3.95-.36,12.71-.36.86,0,.75.83,0,.83-10.68,0-12.61.71-12.61,16.68v65.18h42.1c-.11-24.07-26.28-15.61-26.28-37.77,0-.95.96-1.07.96,0,0,21.33,26.18,12.87,26.28,37.77v1.07h-47.87c-2.03,0-3.31.36-10.58.36Z"/>
  <path class="st0" d="M410.84,190.2c0-27.05,18.59-44.21,39.1-44.21,13.25,0,22.76,5.6,22.76,14.06,0,23.71-50.43,10.49-50.43,25.02v.83h50.86c1.17,0,.96,1.07,0,1.07h-51.82v-1.79c0-16.44,50.43-2.14,50.43-25.26,0-7.63-9.19-12.87-21.8-12.87-19.02,0-33.01,14.89-33.01,39.8s11.97,42.06,31.73,42.06c15.6,0,27.56-9.65,33.23-27.17.32-.83,1.07-.12.75.83-5.66,16.56-17.95,28.96-35.36,28.96-20.84,0-36.43-16.09-36.43-41.35Z"/>
</svg>