<?xml version="1.0" encoding="UTF-8"?>
<svg id="Calque_1" xmlns="http://www.w3.org/2000/svg" version="1.1" viewBox="0 0 507.61 283.46">
  <!-- Generator: Adobe Illustrator 29.7.1, SVG Export Plug-In . SVG Version: 2.1.1 Build 8)  -->
  <defs>
    <style>
      .st0 {
        fill: #d7615d;
      }

      .st1 {
        fill: #b84440;
      }
    </style>
  </defs>
  <path class="st0" d="M26.55,107.05c-.27,0-.56-.03-.83-.09v7.59c0,.66.05,1.59,1.02,1.59h.32v.51h-5.17v-.51h.24c1.05,0,1.08-.93,1.08-1.59v-16.26c0-.6,0-1.47-1.08-1.47h-.27v-.48h5.35c2.53,0,4.55,1.77,4.55,4.98,0,3.45-2.47,5.73-5.22,5.73ZM25.72,96.98v9.27c.24.06.48.06.7.06,2.26,0,2.82-2.61,2.82-4.89,0-3.99-1.67-4.44-2.72-4.44h-.81Z"/>
  <path class="st0" d="M35.83,115.15c0,.78.43.84.65.84h1.13c1.21,0,2.45-.33,2.85-4.47h.48v5.13h-8.96v-.51h.35c.94,0,1-.93,1-1.59v-16.26c0-.6,0-1.47-1.16-1.47h-.16v-.48h5.03v.48h-.24c-.97,0-.97.87-.97,1.47v16.86Z"/>
  <path class="st0" d="M46.97,95.8l3.71,18.87c.21,1.14.78,1.47,1.48,1.47v.51h-5.11v-.51c.92,0,1.16-.24,1.05-1.14,0,.03-.38-2.1-.91-4.89h-3.28l-.78,4.86c-.05.48.05,1.11,1.26,1.17v.51h-3.82v-.51c1.18,0,1.48-.69,1.7-1.65l2.77-15.9c-.16-.87-.27-1.47-.27-1.47,1.08-.36,1.91-1.05,2.21-1.32ZM45.44,100.75l-1.4,8.58h3.01l-1.61-8.58Z"/>
  <path class="st0" d="M59.86,112.54h.67c-.16,1.35-1.08,4.44-3.5,4.44-3.31,0-5.62-5.19-5.62-10.71s2.64-10.26,5.73-10.26c.7,0,1.18.45,1.78.45.27,0,.56,0,.67-.42h.46v4.86h-.46c-.38-2.28-1.08-4.23-2.42-4.23-1.78,0-3.12,2.67-3.12,9.9,0,8.43,1.26,9.72,2.99,9.72,1.59,0,2.42-1.92,2.83-3.75Z"/>
  <path class="st0" d="M65.16,105.83h.78c.92,0,1.8-.63,1.8-1.92v-.66h.54v6.27h-.54v-.96c0-1.26-.81-2.07-1.8-2.07h-.78v8.67c0,.78.43.84.65.84h1.21c1.21,0,2.45-.33,2.85-4.47h.48v5.13h-9.04v-.51h.35c.94,0,1-.93,1-1.59v-16.26c0-.6,0-1.47-1.05-1.47h-.3v-.48h8.72v4.56h-.48c-.19-2.1-.78-3.9-2.88-3.9h-1.51v8.82Z"/>
  <path class="st0" d="M80.86,96.34c4.41,0,6.62,4.41,6.62,9.72,0,4.65-1.94,10.59-6.32,10.59h-4.9v-.51h.19c.81,0,1.08-.33,1.08-1.17v-16.86c0-.6,0-1.29-1.08-1.29h-.19v-.48h4.6ZM80.86,96.98h-.83v17.97c0,.72,0,1.05.57,1.05h.73c2.99,0,3.47-5.49,3.47-9.39,0-6.09-1-9.63-3.93-9.63Z"/>
  <path class="st0" d="M91.92,105.83h.78c.92,0,1.8-.63,1.8-1.92v-.66h.54v6.27h-.54v-.96c0-1.26-.81-2.07-1.8-2.07h-.78v8.67c0,.78.43.84.65.84h1.21c1.21,0,2.45-.33,2.85-4.47h.48v5.13h-9.04v-.51h.35c.94,0,1-.93,1-1.59v-16.26c0-.6,0-1.47-1.05-1.47h-.3v-.48h8.72v4.56h-.48c-.19-2.1-.78-3.9-2.88-3.9h-1.51v8.82Z"/>
  <path class="st1" d="M23.99,183.48c-.49,0-.42-.55,0-.55,5.84,0,6.89-.47,6.89-10.98v-32.32c0-10.51-1.05-10.98-6.89-10.98-.42,0-.49-.55,0-.55,4.78,0,5.63.24,6.96.24h3.1c1.62,0,2.6-.24,8.37-.24.56,0,.49.55,0,.55-7.03,0-8.3.47-8.3,10.98v42.91h27.71c-.07-15.85-17.3-10.28-17.3-24.87,0-.63.63-.71.63,0,0,14.04,17.23,8.47,17.3,24.87v.71h-31.51c-1.34,0-2.18.24-6.96.24Z"/>
  <path class="st1" d="M93.34,183.48c-.49,0-.49-.55,0-.55,4.08,0,5.91-.94,6.19-3.06-7.1-9.33-16.18-15.14-24.34-17.96,3.1,2.12,7.25,6.28,7.25,13.57,0,4.08-2.67,8.47-7.74,8.47-10.13,0-11.18-11.77-6.96-19.3l15.69-30.04v.08l-1.83-4.94q-.07-.16.07-.24c.98-.47,1.83-1.02,2.46-1.96,0,0,.07-.08.14,0l16.95,45.26c2.81,7.45,4.43,10.12,8.51,10.12.28,0,.28.55,0,.55-3.31,0-3.94-.24-4.85-.24h-3.17c-1.62,0-2.6.24-8.37.24ZM74.7,183.24c4.71,0,7.1-4.24,7.1-7.69,0-9.73-8.09-14.04-9.57-14.51l-.14-.08c-.49-.16-.35-.78,0-.71,8.65,2.12,20.33,8.94,27.43,18.51-.07-1.41-.7-3.53-1.62-5.96l-14.14-37.42-15.55,29.73c-3.87,6.9-3.02,18.12,6.47,18.12Z"/>
  <path class="st1" d="M139.42,183.24h-.56c-1.2,0-3.24.24-7.53.24-.42,0-.42-.55,0-.55,5.28,0,7.46-3.92,7.46-10.59l.07-32.71c0-10.51-1.05-10.98-6.89-10.98-.42,0-.49-.55,0-.55,4.78,0,5.63.24,6.96.24h2.11c0,12.39,22.58,25.02,23.78,38.2,6.4-16.08,8.72-38.2,19.2-38.2h3.17c1.34,0,2.18-.24,6.96-.24.49,0,.42.55,0,.55-5.84,0-6.89.47-6.89,10.98v32.24c0,10.51,1.05,10.98,6.89,10.98.42,0,.49.55,0,.55-4.78,0-5.63-.24-6.96-.24l-3.02.08c-1.34,0-2.18.31-6.96.39-.49,0-.42-.55,0-.55,5.84-.16,6.82-.63,6.82-11.14v-42.99c-15.97.63-12.24,54.52-36.23,54.52-4.78,0-6.54-.24-8.37-.24ZM162.92,170.85c-.49-14.28-23.42-28.63-23.42-36.56l-.07,36.87c0,7.37,2.53,11.61,8.37,11.61,7.11,0,11.68-4.94,15.12-11.92Z"/>
  <path class="st1" d="M198.51,155.94c0-16.4,11.82-28.4,25.46-28.4,15.05,0,25.54,11.38,25.54,28.08s-11.89,28.4-26.24,28.4-24.76-11.69-24.76-28.08ZM246.77,158.85c0-14.9-10.2-29.97-24.34-29.97-12.45,0-21.17,10.04-21.17,23.93,0,15.69,10.97,29.89,24.41,29.89,11.96,0,21.1-10.04,21.1-23.85Z"/>
  <path class="st1" d="M253.8,183.48c-.42,0-.42-.55,0-.55,5.28,0,7.46-3.92,7.46-10.59v-30.44c0-12.63-1.05-13.18-6.89-13.18-.42,0-.49-.71,0-.71,4.78,0,5.63.31,6.96.31h3.1c0,9.1,8.3,16.63,16.32,22.98,8.09,6.43,16.25,12.08,18.5,19.85v-30.75c0-7.37-2.18-11.77-7.46-11.77-.42,0-.42-.55,0-.55,4.29,0,6.33.24,7.53.24h.49c1.2,0,3.24-.24,7.53-.24.42,0,.42.55,0,.55-5.21,0-7.46,3.92-7.46,10.59v43.93c0,.31-.35.39-.56.08,0-12.39-10.69-20.16-20.75-28.32-8.44-6.9-16.67-14.36-16.67-21.81v38.05c0,7.37,2.25,11.77,7.46,11.77.42,0,.42.55,0,.55-4.29,0-6.33-.24-7.53-.24h-.49c-1.2,0-3.24.24-7.53.24Z"/>
  <path class="st1" d="M311.91,183.48c-.42,0-.42-.55,0-.55,5.28,0,7.46-3.92,7.46-10.59v-30.44c0-12.63-1.05-13.18-6.89-13.18-.42,0-.49-.71,0-.71,4.78,0,5.63.31,6.96.31h3.1c0,9.1,8.3,16.63,16.32,22.98,8.09,6.43,16.25,12.08,18.5,19.85v-30.75c0-7.37-2.18-11.77-7.46-11.77-.42,0-.42-.55,0-.55,4.29,0,6.33.24,7.53.24h.49c1.2,0,3.23-.24,7.53-.24.42,0,.42.55,0,.55-5.21,0-7.46,3.92-7.46,10.59v43.93c0,.31-.35.39-.56.08,0-12.39-10.69-20.16-20.75-28.32-8.44-6.9-16.67-14.36-16.67-21.81v38.05c0,7.37,2.25,11.77,7.46,11.77.42,0,.42.55,0,.55-4.29,0-6.33-.24-7.53-.24h-.49c-1.2,0-3.24.24-7.53.24Z"/>
  <path class="st1" d="M396.6,183.48c-.49,0-.49-.55,0-.55,4.08,0,5.91-.94,6.19-3.06-7.11-9.33-16.18-15.14-24.34-17.96,3.1,2.12,7.25,6.28,7.25,13.57,0,4.08-2.67,8.47-7.74,8.47-10.13,0-11.18-11.77-6.96-19.3l15.69-30.04v.08l-1.83-4.94q-.07-.16.07-.24c.98-.47,1.83-1.02,2.46-1.96,0,0,.07-.08.14,0l16.95,45.26c2.81,7.45,4.43,10.12,8.51,10.12.28,0,.28.55,0,.55-3.31,0-3.94-.24-4.85-.24h-3.17c-1.62,0-2.6.24-8.37.24ZM377.96,183.24c4.71,0,7.11-4.24,7.11-7.69,0-9.73-8.09-14.04-9.57-14.51l-.14-.08c-.49-.16-.35-.78,0-.71,8.65,2.12,20.33,8.94,27.43,18.51-.07-1.41-.7-3.53-1.62-5.96l-14.14-37.42-15.54,29.73c-3.87,6.9-3.03,18.12,6.47,18.12Z"/>
  <path class="st1" d="M417.28,183.48c-.49,0-.42-.55,0-.55,5.84,0,6.89-.47,6.89-10.98v-32.32c0-10.51-1.05-10.98-6.89-10.98-.42,0-.49-.55,0-.55,4.78,0,5.63.24,6.96.24h3.1c1.34,0,2.18-.24,6.96-.24.49,0,.42.55,0,.55-5.84,0-6.89.47-6.89,10.98v32.32c0,10.51,1.05,10.98,6.89,10.98.42,0,.49.55,0,.55-4.78,0-5.63-.24-6.96-.24h-3.1c-1.34,0-2.18.24-6.96.24Z"/>
  <path class="st1" d="M438.67,156.73c0-17.81,12.24-29.1,25.74-29.1,8.72,0,14.98,3.69,14.98,9.26,0,15.61-33.2,6.9-33.2,16.47v.55h33.48c.77,0,.63.71,0,.71h-34.12v-1.18c0-10.83,33.2-1.41,33.2-16.63,0-5.02-6.05-8.47-14.35-8.47-12.52,0-21.73,9.81-21.73,26.2s7.88,27.69,20.89,27.69c10.27,0,18.15-6.35,21.88-17.89.21-.55.7-.08.49.55-3.73,10.9-11.82,19.06-23.28,19.06-13.72,0-23.99-10.59-23.99-27.22Z"/>
</svg>