<?xml version="1.0" encoding="UTF-8"?>
<svg id="Calque_1" xmlns="http://www.w3.org/2000/svg" version="1.1" viewBox="0 0 507.61 283.46">
  <!-- Generator: Adobe Illustrator 29.7.1, SVG Export Plug-In . SVG Version: 2.1.1 Build 8)  -->
  <defs>
    <style>
      .st0 {
        fill: #d7ab56;
      }

      .st1 {
        fill: #b88b35;
      }
    </style>
  </defs>
  <path class="st0" d="M7.99,133.07c-.69,0-.69-.77,0-.77,7.99-.11,9.56-1.1,9.56-16.06v-44.1c0-14.96-1.58-15.95-9.56-15.95-.69,0-.69-.77,0-.77,6.61,0,7.89.33,9.66.33h21.1c19.92,0,29.29,9.57,29.09,22.21-.3,17.04-16.17,20.67-28.79,20.67-9.37,0-15.09,2.64-15.09,10.67v5.39c0,16.39,2.17,17.49,13.51,17.6.89,0,.89.77,0,.77-9.27,0-11.04-.33-13.61-.33h-6.21c-1.78,0-3.06.33-9.66.33ZM38.95,97.66c14,0,20.9-7.26,21-19.79.1-12.54-7.3-21.11-20.9-21.11h-14.3c-.3,1.1-.79,3.52-.79,13.64v33.98c2.27-5.5,8.28-6.71,14.99-6.71Z"/>
  <path class="st0" d="M106.6,133.07c-.79,0-.79-.77,0-.77,5.82-.11,8.48-1.21,9.07-4.51-9.96-13.09-22.48-21-33.92-24.96,4.34,2.97,10.16,8.8,10.16,19.03,0,5.72-3.75,11.88-10.85,11.88-14.2,0-15.58-16.28-9.76-27.05l22.09-42.34-2.46-6.38c-.1-.22-.1-.33.1-.44,1.97-.77,4.14-1.87,5.23-3.85,0,0,.1-.11.2,0l23.96,63.45c4.24,11.22,6.61,15.07,12.42,15.18.39,0,.39.77,0,.77-4.83,0-5.82-.33-7.1-.33h-6.8c-2.37,0-4.04.33-12.33.33ZM81.06,132.74c6.61,0,9.96-5.94,9.96-10.78,0-13.53-11.34-19.79-13.41-20.45h-.2c-.69-.22-.49-1.1,0-.99,12.13,3.08,28.4,12.54,38.36,25.84,0-2.2-.89-5.28-2.37-9.24l-19.62-51.58-21.79,41.79c-5.32,9.9-4.24,25.4,9.07,25.4Z"/>
  <path class="st0" d="M138.05,133.07c-.69,0-.69-.77,0-.77,7.99-.11,9.56-1.1,9.56-16.06v-44.1c0-14.96-1.58-15.95-9.56-15.95-.69,0-.69-.77,0-.77,6.61,0,7.89.33,9.66.33h6.31c2.17,0,3.75-.33,11.63-.33.79,0,.79.77,0,.77-9.66,0-11.54.99-11.54,15.95v59.6h39.34c-.1-22.21-24.26-14.41-24.26-34.86,0-.88.89-.99.89,0,0,19.68,24.16,11.88,24.26,34.86v.99h-46.64c-1.78,0-3.06.33-9.66.33Z"/>
  <path class="st0" d="M238.52,133.07c-.79,0-.79-.77,0-.77,5.82-.11,8.48-1.21,9.07-4.51-9.96-13.09-22.48-21-33.92-24.96,4.34,2.97,10.16,8.8,10.16,19.03,0,5.72-3.75,11.88-10.85,11.88-14.2,0-15.58-16.28-9.76-27.05l22.09-42.34-2.46-6.38c-.1-.22-.1-.33.1-.44,1.97-.77,4.14-1.87,5.23-3.85,0,0,.1-.11.2,0l23.96,63.45c4.24,11.22,6.61,15.07,12.42,15.18.39,0,.39.77,0,.77-4.83,0-5.82-.33-7.1-.33h-6.8c-2.37,0-4.04.33-12.33.33ZM212.99,132.74c6.61,0,9.96-5.94,9.96-10.78,0-13.53-11.34-19.79-13.41-20.45h-.2c-.69-.22-.49-1.1,0-.99,12.13,3.08,28.4,12.54,38.36,25.84,0-2.2-.89-5.28-2.37-9.24l-19.62-51.58-21.79,41.79c-5.33,9.9-4.24,25.4,9.07,25.4Z"/>
  <path class="st0" d="M269.98,133.07c-.69,0-.69-.77,0-.77,7.99-.11,9.56-1.1,9.56-16.06v-44.1c0-14.96-1.58-15.95-9.56-15.95-.69,0-.69-.77,0-.77,6.61,0,7.89.33,9.66.33h6.31c1.87,0,3.16-.33,9.76-.33.69,0,.59.77,0,.77-8.09,0-9.66.99-9.66,15.95v44.1c0,14.96,1.58,15.95,9.66,16.06.59,0,.69.77,0,.77-6.61,0-7.89-.33-9.76-.33h-6.31c-1.78,0-3.06.33-9.66.33Z"/>
  <path class="st0" d="M303.4,99.75c0-.66.79-.77.89,0-1.28,19.13,8.08,32.99,25.34,32.99,11.24,0,22.19-5.61,22.19-17.92,0-13.53-12.23-19.03-21.5-27.16-8.48,6.05-17.35,11.99-17.35,22.87,0,.77-.89.88-.89,0,0-11.44,8.97-17.49,17.55-23.53-5.32-4.84-9.37-10.45-9.37-19.13,0-7.59,6.61-13.09,13.51-13.09,6.21,0,11.54,4.29,11.54,12.54,0,7.04-4.24,11.99-9.56,16.28,9.27,6.82,21.1,13.2,21.1,27.27,0,12.21-11.24,22.87-27.21,22.87-16.76,0-27.61-12.87-26.23-33.98ZM335.05,83.03c5.23-4.18,9.37-8.91,9.37-15.73,0-8.69-5.92-11.55-10.65-11.55-7.49,0-9.27,5.06-9.27,11,0,7.15,4.73,11.88,10.55,16.28Z"/>
  <path class="st1" d="M399.25,92.08c8.83,0,13.25,8.83,13.25,19.46,0,9.31-3.88,21.2-12.66,21.2h-9.8v-1.02h.38c1.62,0,2.16-.66,2.16-2.34v-33.75c0-1.2,0-2.58-2.16-2.58h-.38v-.96h9.21ZM399.25,93.34h-1.67v35.97c0,1.44,0,2.1,1.13,2.1h1.46c5.98,0,6.95-10.99,6.95-18.8,0-12.19-1.99-19.28-7.86-19.28Z"/>
  <path class="st1" d="M421.38,111.06h1.56c1.83,0,3.61-1.26,3.61-3.84v-1.32h1.08v12.55h-1.08v-1.92c0-2.52-1.62-4.14-3.61-4.14h-1.56v17.36c0,1.56.86,1.68,1.29,1.68h2.42c2.42,0,4.9-.66,5.71-8.95h.97v10.27h-18.1v-1.02h.7c1.89,0,1.99-1.86,1.99-3.18v-32.55c0-1.2,0-2.94-2.1-2.94h-.59v-.96h17.45v9.13h-.97c-.38-4.2-1.56-7.81-5.76-7.81h-3.02v17.66Z"/>
  <path class="st0" d="M7.77,214.69c0-23.39,30.07-19.92,30.07-47.51v-9.28c0-16.83-2.11-17.94-12.98-17.94-.89,0-.89-.87,0-.87,8.88,0,10.65.37,13.09.37h7.21c2.11,0,3.55-.37,10.98-.37.78,0,.67.87,0,.87-9.1,0-10.87,1.11-10.87,17.94v36.62c0,21.78-14.2,32.67-24.96,32.67-6.99,0-12.54-4.58-12.54-12.5ZM20.09,226.08c10.87,0,17.75-10.89,17.75-31.06v-19.67c-5.21,19.55-29.07,19.43-29.07,39.35,0,7.3,5.1,11.38,11.32,11.38Z"/>
  <path class="st0" d="M74.9,189.82v-31.92c0-16.83-1.78-17.94-10.76-17.94-.78,0-.78-.87,0-.87,7.43,0,8.88.37,10.87.37h7.21c2.11,0,3.55-.37,10.98-.37.78,0,.67.87,0,.87-9.1,0-10.87,1.11-10.87,17.94v28.46c0,19.92,3.44,39.72,23.63,39.72,18.64,0,27.18-16.58,27.18-39.22v-21.16c0-15.1-4.66-25.49-14.87-25.61-.78,0-.78-1.11,0-1.11,8.21,0,12.76.5,14.98.5h.78c1.89,0,5.66-.37,12.31-.37.55,0,.55.87,0,.87-8.32,0-12.2,7.18-12.2,17.69v28.71c0,15.96-4.55,40.83-28.29,40.83-16.86,0-30.95-9.16-30.95-37.37Z"/>
  <path class="st0" d="M153.23,188.96c0-.74.89-.87,1,0-1.44,21.53,9.1,37.12,28.51,37.12,12.65,0,24.96-6.31,24.96-20.17,0-15.22-13.76-21.41-24.19-30.56-9.54,6.8-19.53,13.49-19.53,25.74,0,.87-1,.99-1,0,0-12.87,10.1-19.67,19.75-26.48-5.99-5.44-10.54-11.75-10.54-21.53,0-8.54,7.43-14.72,15.2-14.72,6.99,0,12.98,4.83,12.98,14.11,0,7.92-4.77,13.49-10.76,18.31,10.43,7.67,23.74,14.85,23.74,30.69,0,13.73-12.65,25.74-30.62,25.74-18.86,0-31.07-14.48-29.51-38.23ZM188.84,170.15c5.88-4.7,10.54-10.02,10.54-17.69,0-9.78-6.66-12.99-11.98-12.99-8.43,0-10.43,5.69-10.43,12.37,0,8.04,5.33,13.36,11.87,18.31Z"/>
  <path class="st0" d="M235,196.38c0-18.93,9.87-41.33,26.18-55.8h-12.2c-7.54,0-21.3,6.43-22.74,14.48l-3,16.83c-.11.5-1.11.5-1-.25l6.66-36.38c.11-.37.33-.25.55,0,2.44,2.97,6.55,4.21,13.76,4.21h31.07c7.21,0,11.32-1.24,13.76-4.21.22-.25.44-.37.56,0l6.66,36.38c.11.74-.89.74-1,.25l-3-16.83c-1.44-8.04-15.2-14.48-22.74-14.48h-6.1c-17.64,16.21-19.86,38.11-19.86,54.44,0,19.05,9.21,30.07,23.63,30.07,15.42,0,24.41-9.03,30.62-28.46.33-.87,1.22-.62.89.49-5.88,18.93-15.87,30.07-33.06,30.07-15.31,0-29.62-9.9-29.62-30.81Z"/>
  <path class="st0" d="M303.9,226.45c-.78,0-.78-.87,0-.87,8.99-.12,10.76-1.24,10.76-18.06v-49.62c0-16.83-1.78-17.94-10.76-17.94-.78,0-.78-.87,0-.87,7.43,0,8.88.37,10.87.37h7.1c2.11,0,3.55-.37,10.98-.37.78,0,.67.87,0,.87-9.1,0-10.87,1.11-10.87,17.94v49.62c0,16.83,1.78,17.94,10.87,18.06.67,0,.78.87,0,.87-7.43,0-8.88-.37-10.98-.37h-7.1c-2,0-3.44.37-10.87.37Z"/>
  <path class="st0" d="M405.63,165.69c-.33-15.47-6.21-26.23-23.96-26.23-16.09,0-31.06,13.86-31.06,40.83,0,24.62,11.98,44.05,34.39,44.05,15.2,0,26.52-9.9,32.4-28.21.33-.74,1.22-.25.89.62-5.88,17.82-17.64,30.44-37.06,30.44-22.3,0-39.28-16.7-39.28-42.94s18.42-45.91,40.83-45.91c13.98,0,26.74,7.3,31.29,16.21-8.65,11.14-11.32,19.43-13.31,25.86-.33,1.24-1.22.62-1-.12,1.11-3.59,2.88-8.79,5.88-14.6Z"/>
  <path class="st0" d="M423.83,184.25c0-26.6,18.42-45.66,41.05-45.91,13.76,0,23.63,5.82,23.63,14.6,0,24.62-50.04,10.89-50.04,25.98v.87h50.48c1.22,0,1,1.11,0,1.11h-51.48v-1.86c0-17.08,50.04-2.23,50.04-26.23,0-7.92-9.54-13.36-22.63-13.36-17.42,0-32.4,13.86-32.4,40.83,0,24.62,11.43,44.05,33.84,44.05,15.2,0,27.07-10.15,32.95-28.21.33-.74,1.11-.25.78.74-5.99,17.69-18.08,30.31-37.5,30.31-22.3,0-38.72-16.7-38.72-42.94Z"/>
</svg>